<?xml version="1.0" encoding="utf-8"?>
<!-- Generator: Adobe Illustrator 24.1.2, SVG Export Plug-In . SVG Version: 6.00 Build 0)  -->
<svg version="1.1" id="Layer_1" xmlns="http://www.w3.org/2000/svg" xmlns:xlink="http://www.w3.org/1999/xlink" x="0px" y="0px"
	 viewBox="0 0 300 75" style="enable-background:new 0 0 300 75;" xml:space="preserve">
<style type="text/css">
	.st0{fill:#8CC327;}
</style>
<g>
	<path class="st0" d="M54.92,42.23c9.78,0,19.42,0,29.17,0c0,3.28,0,6.4,0,9.6c-13.01,0-25.92,0-38.93,0c0-17.31,0-34.52,0-51.83
		c12.97,0,25.88,0,38.91,0c0,3.02,0,6.03,0,9.25c-9.69,0-19.38,0-29.15,0c0,4.08,0,7.96,0,11.97c9.36,0,18.66,0,28.09,0
		c0,3.09,0,6.05,0,9.21c-9.33,0-18.67,0-28.1,0C54.92,34.42,54.92,38.2,54.92,42.23z"/>
	<path class="st0" d="M133.36,58.57c3.07,0,5.97,0,8.86,0c1.74,6.95,9.28,10.03,15.48,6.38c2.5-1.47,3.72-3.72,3.66-6.59
		c-0.06-2.94-1.53-5.1-4.22-6.14c-1.68-0.65-3.54-0.85-5.34-1.15c-1.92-0.31-3.92-0.29-5.79-0.77c-7.08-1.81-11.75-7.15-12.36-14.43
		c-0.24-2.87-0.18-5.91,0.48-8.7c1.73-7.36,8.08-12.42,15.76-13.09c4.29-0.37,6.8,0.06,10.67,1.89c1.15-1.44,2.32-2.91,3.61-4.51
		c2.25,1.69,4.43,3.32,6.71,5.03c-1.39,1.78-2.71,3.49-4.03,5.18c6.09,7.1,4.9,20.12-3.6,24.59c0.04,0.09,0.06,0.23,0.13,0.27
		c10.42,4.8,8.88,20.68-0.52,25.62c-7.37,3.87-14.86,3.84-22.07-0.32C135.85,68.99,133.54,64.43,133.36,58.57z M161.57,32.65
		c-0.03-4.99-2.67-8.82-6.88-10c-6.76-1.9-12.58,3.1-12.26,10.53c0.26,5.92,4.22,9.77,9.9,9.62
		C157.76,42.65,161.61,38.42,161.57,32.65z"/>
	<path class="st0" d="M220.22,58.54c3.12,0,5.98,0,8.83,0c1.12,7.58,9.26,9.02,14.39,6.96c3.12-1.25,4.85-3.85,4.8-7.07
		c-0.05-3.08-1.72-5.47-4.95-6.52c-1.66-0.54-3.48-0.74-5.24-0.83c-6.97-0.34-12.74-2.77-15.89-9.37c-3.82-8.01-2.71-20.6,7.92-25.7
		c5.62-2.7,11.4-2.88,17.32-0.08c1.15-1.4,2.36-2.88,3.65-4.46c2.23,1.68,4.37,3.29,6.68,5.02c-1.39,1.78-2.71,3.48-4.02,5.16
		c6.31,7.49,4.61,20.4-3.66,24.6c0.09,0.12,0.15,0.27,0.27,0.34c6.73,4.21,8.89,10.93,5.83,18.28c-1.89,4.55-5.36,7.4-9.98,8.84
		c-6.53,2.03-12.87,1.6-18.76-2.04C222.64,68.74,220.45,64.26,220.22,58.54z M238.92,42.79c5.53-0.01,9.57-4.23,9.58-10.02
		c0.01-6.15-4.02-10.52-9.68-10.49c-5.55,0.03-9.59,4.36-9.56,10.24C229.3,38.66,233.2,42.81,238.92,42.79z"/>
	<path class="st0" d="M205.33,20.07c0.15-1.82,0.26-3.24,0.39-4.78c2.85,0,5.63,0,8.55,0c0,12.13,0,24.28,0,36.53
		c-2.75,0-5.49,0-8.39,0c-0.17-1.57-0.33-3.13-0.52-4.93c-3.43,4.61-8,6.31-13.36,6.09c-5.2-0.22-9.83-1.93-13.25-6.05
		c-3.92-4.74-4.69-10.35-4.15-16.25c1.08-11.75,12.58-19.27,23.86-15.63C201.17,15.92,203.42,17.43,205.33,20.07z M183.58,33.51
		c0.07,6.7,4.49,11.23,10.91,11.19c6.26-0.04,10.74-4.74,10.7-11.25c-0.04-6.54-4.55-11.14-10.85-11.07
		C187.93,22.45,183.51,27.02,183.58,33.51z"/>
	<path class="st0" d="M271.24,36.74c0.52,4.11,3.61,6.94,8.05,7.64c4.55,0.71,8.35-0.19,12.78-3.06c1.82,1.87,3.65,3.75,5.83,5.98
		c-2.15,1.25-4.15,2.72-6.37,3.65c-5.54,2.34-11.3,2.56-17.06,0.84c-7.74-2.32-12.41-8.76-12.74-17.37
		c-0.5-13.07,9.12-21.84,22.22-20.24c10.14,1.24,15.84,7.56,16.04,17.79c0.03,1.54,0,3.07,0,4.78
		C290.3,36.74,280.84,36.74,271.24,36.74z M291.08,29.2c-0.34-2.75-1.59-4.75-3.93-5.84c-4.06-1.9-8.14-1.8-12.02,0.54
		c-1.95,1.18-3.18,2.97-3.79,5.3C277.99,29.2,284.42,29.2,291.08,29.2z"/>
	<path class="st0" d="M0.02,15.24c3.07,0,5.98,0,9.11,0c0,0.69,0,1.3,0,1.91c0,5.57-0.01,11.15,0.01,16.72
		c0,1.03,0.02,2.08,0.21,3.09c0.84,4.54,4.07,7.27,8.5,7.26c4.72-0.01,8.6-3.27,9.32-8.05c0.3-2.03,0.25-4.12,0.27-6.19
		c0.03-4.87,0.01-9.74,0.01-14.73c3.07,0,5.96,0,8.95,0c0,12.23,0,24.38,0,36.62c-2.7,0-5.32,0-8.04,0
		c-0.21-1.56-0.41-3.06-0.64-4.78c-0.52,0.43-0.91,0.73-1.27,1.06c-3.92,3.55-8.53,4.93-13.72,4.12
		c-6.16-0.96-9.89-4.81-11.68-10.59c-0.56-1.79-0.93-3.71-0.96-5.58C-0.05,29.22,0.02,22.33,0.02,15.24z"/>
	<path class="st0" d="M127.37,51.83c-3.08,0-5.98,0-9.08,0c0-0.99,0-1.9,0-2.8c0-5.06,0-10.11,0-15.17c0-0.75,0-1.5-0.08-2.24
		c-0.61-5.81-3.96-8.96-9.26-8.73c-4.97,0.21-8.85,4.28-8.94,9.59c-0.1,5.51-0.02,11.03-0.02,16.55c0,0.86,0,1.72,0,2.74
		c-2.96,0-5.86,0-8.91,0c0-12.1,0-24.29,0-36.57c2.59,0,5.15,0,7.91,0c0.23,1.5,0.47,3.04,0.74,4.77c0.6-0.52,1.03-0.89,1.46-1.25
		c4.71-4.03,10.08-5.25,15.92-3.19c5.9,2.08,8.99,6.73,9.8,12.68c0.55,4.07,0.38,8.25,0.45,12.38
		C127.42,44.3,127.37,48.02,127.37,51.83z"/>
</g>
</svg>
